<svg width="34" height="36" viewBox="0 0 34 36" fill="none" xmlns="http://www.w3.org/2000/svg">
<g clip-path="url(#clip0_10_290)">
<path fill-rule="evenodd" clip-rule="evenodd" d="M34 18.3855C34 16.9591 33.8842 15.9183 33.6338 14.839H17.3469V21.2765H26.9069C26.7143 22.8764 25.6734 25.2857 23.3604 26.9046L23.3281 27.1202L28.4776 31.1095L28.8344 31.1451C32.111 28.1191 34 23.6667 34 18.3855Z" fill="#4285F4"/>
<path fill-rule="evenodd" clip-rule="evenodd" d="M17.3469 35.3469C22.0305 35.3469 25.9624 33.8049 28.8344 31.1451L23.3604 26.9046C21.8956 27.9262 19.9296 28.6394 17.3469 28.6394C12.7596 28.6394 8.86625 25.6134 7.47832 21.4309L7.27495 21.4482L1.92027 25.5922L1.85022 25.7868C4.70278 31.4534 10.5623 35.3469 17.3469 35.3469Z" fill="#34A853"/>
<path fill-rule="evenodd" clip-rule="evenodd" d="M7.47838 21.4309C7.11222 20.3516 6.90021 19.195 6.90021 18.0001C6.90021 16.805 7.11211 15.6485 7.45912 14.5692L7.44944 14.3393L2.02773 10.1287L1.85038 10.2131C0.674674 12.5646 0.00012207 15.2051 0.00012207 17.9999C0.00012207 20.7947 0.674778 23.4352 1.85038 25.7867L7.47848 21.4308" fill="#FBBC04"/>
<path fill-rule="evenodd" clip-rule="evenodd" d="M17.3469 7.36053C20.6042 7.36053 22.8014 8.7676 24.0543 9.94341L28.95 5.16336C25.9433 2.36857 22.0305 0.653198 17.3469 0.653198C10.5623 0.653198 4.70289 4.54658 1.85022 10.2132L7.45907 14.5693C8.86625 10.3868 12.7596 7.36063 17.3469 7.36063" fill="#EA4335"/>
</g>
<defs>
<clipPath id="clip0_10_290">
<rect width="34" height="34.6938" fill="white" transform="translate(0 0.653095)"/>
</clipPath>
</defs>
</svg>
