<svg width="34" height="34" viewBox="0 0 34 34" fill="none" xmlns="http://www.w3.org/2000/svg">
<path d="M28.9695 28.97H23.9318V21.0806C23.9318 19.1993 23.8982 16.7774 21.3116 16.7774C18.6878 16.7774 18.2863 18.8273 18.2863 20.9436V28.9695H13.2487V12.7456H18.0848V14.9628H18.1526C18.6365 14.1353 19.3359 13.4545 20.1762 12.993C21.0165 12.5314 21.9662 12.3065 22.9242 12.342C28.0302 12.342 28.9716 15.7006 28.9716 20.0698L28.9695 28.97ZM7.56435 10.5281C5.94975 10.5283 4.64061 9.2196 4.64035 7.605C4.64008 5.9904 5.94868 4.68127 7.56328 4.681C9.17789 4.6806 10.487 5.98934 10.4873 7.60394C10.4874 8.3793 10.1796 9.12297 9.6314 9.67134C9.08325 10.2197 8.33971 10.5279 7.56435 10.5281ZM10.0833 28.9701H5.04025V12.7456H10.0831V28.97L10.0833 28.9701ZM31.481 0.00241542H2.50884C1.13954 -0.0129908 0.0166123 1.08391 -0.00012207 2.4532V31.5462C0.0160811 32.9161 1.13888 34.0141 2.50871 33.9998H31.481C32.8537 34.0168 33.9809 32.9188 33.9999 31.5462V2.45095C33.9804 1.07899 32.853 -0.0177721 31.481 0.000157608" fill="#0A66C2"/>
</svg>
